<svg width="19" height="20" viewBox="0 0 19 20" fill="none" xmlns="http://www.w3.org/2000/svg">
<path d="M2.53333 0C1.13604 0 0 1.12109 0 2.5V17.5C0 18.8789 1.13604 20 2.53333 20H13.9333C15.3306 20 16.4667 18.8789 16.4667 17.5V2.5C16.4667 1.12109 15.3306 0 13.9333 0H2.53333ZM6.96667 11.25H9.5C11.2496 11.25 12.6667 12.6484 12.6667 14.375C12.6667 14.7188 12.3817 15 12.0333 15H4.43333C4.085 15 3.8 14.7188 3.8 14.375C3.8 12.6484 5.21708 11.25 6.96667 11.25ZM5.7 7.5C5.7 6.83696 5.9669 6.20107 6.442 5.73223C6.91709 5.26339 7.56145 5 8.23333 5C8.90522 5 9.54958 5.26339 10.0247 5.73223C10.4998 6.20107 10.7667 6.83696 10.7667 7.5C10.7667 8.16304 10.4998 8.79893 10.0247 9.26777C9.54958 9.73661 8.90522 10 8.23333 10C7.56145 10 6.91709 9.73661 6.442 9.26777C5.9669 8.79893 5.7 8.16304 5.7 7.5ZM19 3.125C19 2.78125 18.715 2.5 18.3667 2.5C18.0183 2.5 17.7333 2.78125 17.7333 3.125V5.625C17.7333 5.96875 18.0183 6.25 18.3667 6.25C18.715 6.25 19 5.96875 19 5.625V3.125ZM18.3667 7.5C18.0183 7.5 17.7333 7.78125 17.7333 8.125V10.625C17.7333 10.9688 18.0183 11.25 18.3667 11.25C18.715 11.25 19 10.9688 19 10.625V8.125C19 7.78125 18.715 7.5 18.3667 7.5ZM19 13.125C19 12.7812 18.715 12.5 18.3667 12.5C18.0183 12.5 17.7333 12.7812 17.7333 13.125V15.625C17.7333 15.9688 18.0183 16.25 18.3667 16.25C18.715 16.25 19 15.9688 19 15.625V13.125Z" fill="#303030"/>
</svg>
