<svg width="20" height="17" viewBox="0 0 20 17" fill="none" xmlns="http://www.w3.org/2000/svg">
<path d="M14.34 2.80424L18.9998 7.46406C19.273 7.73728 19.4286 8.11295 19.4286 8.5C19.4286 8.88705 19.273 9.26272 18.9998 9.53594L14.34 14.1958C14.0971 14.4386 13.7708 14.5714 13.4292 14.5714C12.7196 14.5714 12.1429 13.9946 12.1429 13.285V10.9286H7.28572C6.61406 10.9286 6.07143 10.3859 6.07143 9.71429V7.28571C6.07143 6.61406 6.61406 6.07143 7.28572 6.07143H12.1429V3.71496C12.1429 3.00536 12.7196 2.42857 13.4292 2.42857C13.7708 2.42857 14.0971 2.56518 14.34 2.80424ZM6.07143 2.42857H3.64286C2.97121 2.42857 2.42857 2.97121 2.42857 3.64286V13.3571C2.42857 14.0288 2.97121 14.5714 3.64286 14.5714H6.07143C6.74308 14.5714 7.28572 15.1141 7.28572 15.7857C7.28572 16.4574 6.74308 17 6.07143 17H3.64286C1.6317 17 0 15.3683 0 13.3571V3.64286C0 1.6317 1.6317 0 3.64286 0H6.07143C6.74308 0 7.28572 0.542634 7.28572 1.21429C7.28572 1.88594 6.74308 2.42857 6.07143 2.42857Z" fill="white"/>
</svg>
