<svg width="17" height="17" viewBox="0 0 17 17" fill="none" xmlns="http://www.w3.org/2000/svg">
<path d="M7.31963 0C6.74119 0 6.27388 0.473475 6.27388 1.05952V1.69524C3.88826 2.18527 2.09087 4.32418 2.09087 6.8869V7.50938C2.09087 9.06555 1.52552 10.5687 0.50591 11.7342L0.26408 12.009C-0.0104294 12.3203 -0.0757888 12.7673 0.0908776 13.148C0.257544 13.5288 0.63336 13.7738 1.04512 13.7738H13.5941C14.0059 13.7738 14.3784 13.5288 14.5484 13.148C14.7183 12.7673 14.6497 12.3203 14.3752 12.009L14.1333 11.7342C13.1137 10.5687 12.5484 9.06886 12.5484 7.50938V6.8869C12.5484 4.32418 10.751 2.18527 8.36538 1.69524V1.05952C8.36538 0.473475 7.89806 0 7.31963 0ZM8.80002 16.3332C9.19217 15.9359 9.41113 15.3962 9.41113 14.8333H7.31963H5.22813C5.22813 15.3962 5.44708 15.9359 5.83923 16.3332C6.23139 16.7305 6.76407 16.9524 7.31963 16.9524C7.87518 16.9524 8.40786 16.7305 8.80002 16.3332Z" fill="white"/>
<circle cx="14.2565" cy="1.92641" r="1.92641" fill="white"/>
</svg>
