<svg width="20" height="11" viewBox="0 0 20 11" fill="none" xmlns="http://www.w3.org/2000/svg">
<path d="M10.7467 2.83216L15.5533 6.91199C15.4977 6.94292 15.4421 6.98073 15.3866 7.0151C14.7614 7.4413 13.9939 7.71283 13.3306 7.71283C12.6499 7.71283 11.9136 7.44817 11.2746 7.0151C10.5071 6.48235 9.48253 6.48235 8.715 7.0151C8.12113 7.42067 7.39528 7.71283 6.65901 7.71283C6.30824 7.71283 5.92621 7.63721 5.55113 7.49973C5.66226 3.34085 9.10398 0 13.334 0H15.5567C16.1715 0 16.6681 0.491504 16.6681 1.09987C16.6681 1.70823 16.1715 2.19974 15.5567 2.19974H13.334C12.3998 2.19974 11.5177 2.42658 10.7467 2.83216ZM5.5546 2.19974C5.5546 2.78314 5.32043 3.34266 4.90359 3.75519C4.48675 4.16772 3.9214 4.39947 3.3319 4.39947C2.74241 4.39947 2.17706 4.16772 1.76022 3.75519C1.34338 3.34266 1.10921 2.78314 1.10921 2.19974C1.10921 1.61633 1.34338 1.05682 1.76022 0.644288C2.17706 0.231757 2.74241 0 3.3319 0C3.9214 0 4.48675 0.231757 4.90359 0.644288C5.32043 1.05682 5.5546 1.61633 5.5546 2.19974ZM10.6425 7.90187C11.4239 8.43462 12.379 8.79895 13.334 8.79895C14.2683 8.79895 15.2581 8.42774 16.0221 7.90187C16.4354 7.60971 16.998 7.63377 17.3835 7.9603C17.8836 8.36931 18.5122 8.68209 19.1409 8.82644C19.7382 8.96393 20.1098 9.55511 19.9709 10.1463C19.832 10.7375 19.2346 11.1052 18.6373 10.9678C17.7864 10.7718 17.0779 10.4006 16.616 10.1085C15.6088 10.6447 14.4801 10.9987 13.334 10.9987C12.2262 10.9987 11.2294 10.6584 10.5418 10.3491C10.3404 10.2563 10.1563 10.1669 10 10.0844C9.84372 10.1669 9.66312 10.2597 9.45822 10.3491C8.77057 10.6584 7.77383 10.9987 6.66595 10.9987C5.51987 10.9987 4.39116 10.6447 3.384 10.1119C2.91862 10.4006 2.21361 10.7753 1.36273 10.9712C0.765381 11.1087 0.168031 10.7409 0.0291122 10.1497C-0.109806 9.55854 0.261801 8.96736 0.859151 8.82988C1.48776 8.68552 2.11637 8.37275 2.61647 7.96374C3.00197 7.64065 3.56459 7.61659 3.97788 7.9053C4.7454 8.42774 5.73172 8.79895 6.66595 8.79895C7.62102 8.79895 8.57608 8.43462 9.3575 7.90187C9.743 7.63034 10.257 7.63034 10.6425 7.90187Z" fill="#303030"/>
</svg>
